<svg width="34" height="30" viewBox="0 0 34 30" fill="none" xmlns="http://www.w3.org/2000/svg">
<path fill-rule="evenodd" clip-rule="evenodd" d="M6.13404 6C4.63993 6 3.42871 7.21122 3.42871 8.70533V21.0336C3.42871 22.5277 4.63993 23.7389 6.13404 23.7389H18.4623C19.9564 23.7389 21.1676 22.5277 21.1676 21.0336V8.70533C21.1676 7.21122 19.9564 6 18.4623 6H6.13404ZM15.8985 14.8538C15.8985 16.8141 14.2976 18.4232 12.2982 18.4232C10.2987 18.4232 8.69788 16.8141 8.69788 14.8538C8.69788 12.8935 10.2987 11.2844 12.2982 11.2844C14.2976 11.2844 15.8985 12.8935 15.8985 14.8538ZM18.1005 14.8538C18.1005 18.0413 15.5027 20.6252 12.2982 20.6252C9.09365 20.6252 6.49587 18.0413 6.49587 14.8538C6.49587 11.6663 9.09365 9.08237 12.2982 9.08237C15.5027 9.08237 18.1005 11.6663 18.1005 14.8538Z" fill="white"/>
<path d="M23.2551 10.8699C23.2551 10.541 23.4264 10.2358 23.7072 10.0644L26.137 8.58127C26.703 8.2358 27.4289 8.64315 27.4289 9.30623V14.8694H23.2551V10.8699Z" fill="white"/>
<path d="M23.2546 18.853C23.2546 19.1819 23.4259 19.4871 23.7067 19.6585L26.1365 21.1416C26.7025 21.4871 27.4284 21.0798 27.4284 20.4167V14.8535H23.2546V18.853Z" fill="white"/>
</svg>
